HIERARCHY
ROOT Pelvis
{
	OFFSET 0.000000 0.000000 0.000000
	CHANNELS 6 Xposition Yposition Zposition Xrotation Yrotation Zrotation
	JOINT LeftUpLeg_virtual
	{
		OFFSET 0.000000 0.000000 0.000000
		CHANNELS 3 Xrotation Yrotation Zrotation
		JOINT LeftUpLeg
		{
			OFFSET 18.735201 -5.666702 -4.541200
			CHANNELS 3 Xrotation Yrotation Zrotation
			JOINT LeftLeg
			{
				OFFSET -0.021200 -31.938179 0.493100
				CHANNELS 3 Xrotation Yrotation Zrotation
				JOINT LeftFoot
				{
					OFFSET 0.021200 -31.938179 -4.336299
					CHANNELS 3 Xrotation Yrotation Zrotation
					JOINT LeftToeBase
					{
						OFFSET 0.943001 -26.722000 15.023500
						CHANNELS 3 Xrotation Yrotation Zrotation
						End Site
						{
							OFFSET 0 0 0
						}
					}
				}
			}
		}
	}
	JOINT RightUpLeg_virtual
	{
		OFFSET 0.000000 0.000000 0.000000
		CHANNELS 3 Xrotation Yrotation Zrotation
		JOINT RightUpLeg
		{
			OFFSET -18.735201 -5.666702 -4.541200
			CHANNELS 3 Xrotation Yrotation Zrotation
			JOINT RightLeg
			{
				OFFSET 0.018946 -31.938133 0.493100
				CHANNELS 3 Xrotation Yrotation Zrotation
				JOINT RightFoot
				{
					OFFSET -0.018946 -31.938126 -4.336299
					CHANNELS 3 Xrotation Yrotation Zrotation
					JOINT RightToeBase
					{
						OFFSET -0.943001 -26.722004 15.023500
						CHANNELS 3 Xrotation Yrotation Zrotation
						End Site
						{
							OFFSET 0 0 0
						}
					}
				}
			}
		}
	}
	JOINT Hips_virtual
	{
		OFFSET 0.000000 0.000000 0.000000
		CHANNELS 3 Xrotation Yrotation Zrotation
		JOINT Hips
		{
			OFFSET -0.000000 -0.000000 -0.000000
			CHANNELS 3 Xrotation Yrotation Zrotation
			JOINT Spine
			{
				OFFSET 0.000000 10.199997 -0.299500
				CHANNELS 3 Xrotation Yrotation Zrotation
				JOINT Spine1
				{
					OFFSET 0.000000 11.900002 -1.516600
					CHANNELS 3 Xrotation Yrotation Zrotation
					JOINT Spine2
					{
						OFFSET 0.000000 13.600006 -2.842500
						CHANNELS 3 Xrotation Yrotation Zrotation
						JOINT Neck_virtual
						{
							OFFSET 0.000000 0.000000 0.000000
							CHANNELS 3 Xrotation Yrotation Zrotation
							JOINT Neck
							{
								OFFSET 0.000000 9.624100 -2.890100
								CHANNELS 3 Xrotation Yrotation Zrotation
								JOINT Head
								{
									OFFSET 0.000000 14.068802 -1.351900
									CHANNELS 3 Xrotation Yrotation Zrotation
									End Site
									{
										OFFSET 0 0 0
									}
								}
							}
						}
						JOINT LeftShoulder_virtual
						{
							OFFSET 0.000000 0.000000 0.000000
							CHANNELS 3 Xrotation Yrotation Zrotation
							JOINT LeftShoulder
							{
								OFFSET 15.263000 10.923401 -0.547700
								CHANNELS 3 Xrotation Yrotation Zrotation
								JOINT LeftArm
								{
									OFFSET 25.438599 -2.830597 -13.032500
									CHANNELS 3 Xrotation Yrotation Zrotation
									JOINT LeftForeArm
									{
										OFFSET 29.960503 0.000000 0.000000
										CHANNELS 3 Xrotation Yrotation Zrotation
										JOINT LeftHand
										{
											OFFSET 27.849251 0.000000 0.000000
											CHANNELS 3 Xrotation Yrotation Zrotation
											End Site
											{
												OFFSET 0 0 0
											}
										}
									}
								}
							}
						}
						JOINT RightShoulder_virtual
						{
							OFFSET 0.000000 0.000000 0.000000
							CHANNELS 3 Xrotation Yrotation Zrotation
							JOINT RightShoulder
							{
								OFFSET -15.263000 10.923401 -0.547700
								CHANNELS 3 Xrotation Yrotation Zrotation
								JOINT RightArm
								{
									OFFSET -25.438599 -2.830597 -13.032500
									CHANNELS 3 Xrotation Yrotation Zrotation
									JOINT RightForeArm
									{
										OFFSET -29.960503 0.000000 0.000000
										CHANNELS 3 Xrotation Yrotation Zrotation
										JOINT RightHand
										{
											OFFSET -27.849251 0.000000 0.000000
											CHANNELS 3 Xrotation Yrotation Zrotation
											End Site
											{
												OFFSET 0 0 0
											}
										}
									}
								}
							}
						}
					}
				}
			}
		}
	}
}
MOTION
Frames: 8
Frame Time: 0.03333333
2.144633 81.073128 2.955711 0.000000 0.000000 0.000000 6.436261 -12.276558 2.325373 -57.760348 2.622803 21.852598 48.097834 2.136506 6.524402 7.935891 0.711219 -22.090850 0.000000 0.000000 0.000000 6.912901 -11.253382 2.081535 -30.223771 0.753623 -36.404130 39.751096 1.213896 -1.986193 -12.435788 -5.650730 34.487855 0.000000 0.000000 0.000000 6.669944 -12.159993 2.515192 0.208895 0.311753 -0.972356 8.393555 1.403737 -1.916761 6.288597 1.597601 -0.931219 0.000000 0.000000 0.000000 6.020837 1.545112 -0.685677 -0.607720 0.260818 0.001309 0.000000 0.000000 0.000000 5.475432 1.619098 -0.882991 6.583436 -37.210734 7.686715 -80.965322 -31.556017 -28.719856 -0.017602 -23.173917 0.277386 0.000000 0.000000 0.000000 6.005162 1.666045 -0.848360 3.788821 32.314499 -17.185960 -33.478090 33.112351 7.093192 -0.442562 25.963595 1.699720 0.000000 0.000000 0.000000 
2.284288 80.812904 3.055141 0.000000 0.000000 0.000000 6.590407 -11.876541 2.144021 -58.730795 2.336230 21.982445 49.042237 2.037620 6.277600 7.644250 0.618238 -21.823947 0.000000 0.000000 0.000000 7.113783 -10.886006 1.854035 -30.237015 0.533663 -36.435292 39.825365 1.160298 -1.964744 -12.695682 -5.972466 34.633434 0.000000 0.000000 0.000000 6.957672 -12.122708 2.379974 0.263607 0.257529 -1.047415 8.424673 1.418893 -1.874605 6.279200 1.476853 -0.970293 0.000000 0.000000 0.000000 6.057932 1.478138 -0.720307 -0.850686 0.237139 0.094897 0.000000 0.000000 0.000000 5.427179 1.556811 -0.986959 6.263698 -37.306736 7.633765 -79.174276 -31.223015 -26.593946 -0.175911 -25.654303 0.314966 0.000000 0.000000 0.000000 5.930066 1.606047 -0.944884 3.303567 32.051339 -17.209570 -35.327183 32.801587 8.148662 -0.187427 26.959955 1.509687 0.000000 0.000000 0.000000 
2.412253 80.607437 3.219189 0.000000 0.000000 0.000000 6.668398 -11.476497 1.901058 -59.472697 1.928136 22.029786 50.048771 1.838582 6.137394 7.163931 0.546672 -21.456493 0.000000 0.000000 0.000000 7.236037 -10.509825 1.568947 -30.167340 0.265249 -36.395954 40.037903 1.018604 -1.989504 -12.768222 -6.275783 34.659887 0.000000 0.000000 0.000000 7.127958 -11.964827 2.169109 0.246389 0.142830 -1.099181 8.406143 1.463123 -1.864397 6.335318 1.454689 -1.046276 0.000000 0.000000 0.000000 6.120460 1.494285 -0.804322 -1.171179 0.182929 0.184924 0.000000 0.000000 0.000000 5.544038 1.575769 -1.105460 5.868650 -36.971923 7.299892 -78.302764 -31.900170 -26.397665 -0.316827 -25.901384 0.223566 0.000000 0.000000 0.000000 5.984304 1.636822 -1.057177 2.861191 31.316127 -17.237557 -37.036943 32.765053 10.001800 0.091856 26.992180 1.290287 0.000000 0.000000 0.000000 
2.549973 80.460739 3.327030 0.000000 0.000000 0.000000 6.635166 -11.178245 1.640931 -59.870269 1.519081 22.001849 50.906547 1.598186 6.084705 6.552749 0.497913 -21.011482 0.000000 0.000000 0.000000 7.229519 -10.190768 1.274084 -30.029227 0.033715 -36.320146 40.157510 0.829955 -2.058589 -12.605102 -6.489967 34.653644 0.000000 0.000000 0.000000 7.145058 -11.761360 1.922439 0.135603 -0.017724 -1.072062 8.399359 1.505707 -1.891080 6.446333 1.529824 -1.128678 0.000000 0.000000 0.000000 6.222790 1.577322 -0.934438 -1.534862 0.124532 0.229572 0.000000 0.000000 0.000000 5.797551 1.667745 -1.218959 5.539127 -36.407005 6.979523 -78.291508 -33.477315 -27.125625 -0.386244 -24.181627 0.023979 0.000000 0.000000 0.000000 6.149329 1.749259 -1.159996 2.541977 30.459799 -17.404505 -37.919226 32.893563 11.766177 0.286802 25.975884 1.220895 0.000000 0.000000 0.000000 
2.715991 80.368614 3.344398 0.000000 0.000000 0.000000 6.488547 -11.012583 1.414101 -59.935026 1.239353 21.922489 51.470851 1.395076 6.063976 5.940656 0.495928 -20.549210 0.000000 0.000000 0.000000 7.043309 -9.994925 1.018085 -29.799425 -0.106789 -36.210565 40.088310 0.619053 -2.154687 -12.480560 -6.684856 34.644827 0.000000 0.000000 0.000000 7.011619 -11.509061 1.687693 0.017299 -0.103403 -1.012745 8.453217 1.488248 -1.960336 6.561330 1.669512 -1.189252 0.000000 0.000000 0.000000 6.314562 1.710549 -1.050502 -1.893583 0.094035 0.211559 0.000000 0.000000 0.000000 6.077746 1.799375 -1.295364 5.353973 -35.760374 6.971148 -78.513762 -35.193711 -27.779752 -0.362221 -22.162055 -0.243616 0.000000 0.000000 0.000000 6.350166 1.912433 -1.225698 2.387552 29.861717 -17.629429 -37.540799 32.954549 12.760452 0.414866 24.899245 1.299512 0.000000 0.000000 0.000000 
2.894269 80.323555 3.238419 0.000000 0.000000 0.000000 6.242884 -10.906553 1.245754 -59.733187 1.163703 21.794693 51.625216 1.263720 6.033641 5.391693 0.532060 -20.142662 0.000000 0.000000 0.000000 6.711365 -9.869300 0.839232 -29.449102 -0.186625 -36.096979 39.687938 0.404786 -2.246226 -12.542999 -6.899047 34.646439 0.000000 0.000000 0.000000 6.734303 -11.225344 1.495838 -0.102510 0.016238 -0.988166 8.561284 1.395929 -2.084530 6.645799 1.803286 -1.205340 0.000000 0.000000 0.000000 6.354443 1.840784 -1.138557 -2.190643 0.103261 0.140251 0.000000 0.000000 0.000000 6.261705 1.928533 -1.332239 5.299154 -35.202310 7.184255 -78.560269 -36.325900 -27.683728 -0.264594 -21.620745 -0.508940 0.000000 0.000000 0.000000 6.490119 2.068977 -1.249181 2.315363 29.540831 -17.796978 -36.443205 32.846663 13.099039 0.522018 24.851688 1.478207 0.000000 0.000000 0.000000 
3.014275 80.343124 2.996681 0.000000 0.000000 0.000000 5.953905 -10.730704 1.156761 -59.365368 1.257166 21.644726 51.323739 1.208673 5.992911 4.865563 0.596327 -19.847457 0.000000 0.000000 0.000000 6.306076 -9.715935 0.742637 -29.010863 -0.257238 -35.962531 39.017357 0.217063 -2.315108 -12.762096 -7.131304 34.661301 0.000000 0.000000 0.000000 6.373001 -10.843409 1.362098 -0.172560 0.168324 -1.015082 8.710482 1.215516 -2.205844 6.676670 1.861398 -1.179776 0.000000 0.000000 0.000000 6.345341 1.917049 -1.174489 -2.402969 0.138052 0.035843 0.000000 0.000000 0.000000 6.294875 1.999822 -1.348689 5.342115 -34.967973 7.504272 -78.185537 -36.318527 -26.658138 -0.193594 -23.007620 -0.716781 0.000000 0.000000 0.000000 6.522366 2.165396 -1.235405 2.268475 29.376521 -17.869839 -35.351133 32.597037 13.293557 0.640768 25.896753 1.625688 0.000000 0.000000 0.000000 
3.040947 80.446121 2.782070 0.000000 0.000000 0.000000 5.671979 -10.515826 1.151521 -58.908360 1.456680 21.513518 50.680731 1.231263 5.952203 4.489532 0.681932 -19.721242 0.000000 0.000000 0.000000 5.947455 -9.546163 0.736280 -28.612106 -0.234685 -35.791697 38.412557 0.109542 -2.395284 -12.821489 -7.263778 34.695158 0.000000 0.000000 0.000000 6.014391 -10.438512 1.304647 -0.205522 0.263742 -1.019342 8.834364 0.992749 -2.293472 6.652830 1.826997 -1.131726 0.000000 0.000000 0.000000 6.278905 1.934522 -1.169214 -2.526989 0.175538 -0.052844 0.000000 0.000000 0.000000 6.203194 2.005259 -1.353499 5.467915 -35.173927 7.893262 -77.636875 -35.395290 -25.338702 -0.230438 -25.167768 -0.848658 0.000000 0.000000 0.000000 6.479104 2.198118 -1.209757 2.240827 29.222268 -17.971290 -35.120505 32.605793 14.024581 0.792488 27.178241 1.636285 0.000000 0.000000 0.000000 
